# xmcd CD database file
#
# Track frame offsets:
#	150
#	30027
#	52527
#	91306
#	119865
#	150533
#
# Disc length: 2382 seconds
#
# Revision: 0
# Processed by: cddbd v1.5.2PL0 Copyright (c) Steve Scherf et al.
# Submitted via: CDex 1.51
#
DISCID=38094c06
DTITLE=The Diamond Five - Brilliant!
DYEAR=1964
DGENRE=Jazz
TTITLE0=Johnny's birthday
TTITLE1=Ruined girl
TTITLE2=Lutuli
TTITLE3=Lining up
TTITLE4=New born
TTITLE5=Monosyl
EXTD=YEAR: 1964
EXTT0=
EXTT1=
EXTT2=
EXTT3=
EXTT4=
EXTT5=
PLAYORDER=
